<?xml version="1.0" encoding="UTF-8"?>
<svg id="Layer_2" data-name="Layer 2" xmlns="http://www.w3.org/2000/svg" viewBox="0 0 197.23 91.62">
  <defs>
    <style>
      .cls-1 {
        fill: #3b82f6;
      }
    </style>
  </defs>
  <g id="Layer_1-2" data-name="Layer 1">
    <g>
      <path d="m47.12,14.27c4.25,2.21,7.57,5.43,9.94,9.65,2.37,4.23,3.56,9.26,3.56,15.09v30.51h-19.31v-11.53h-18.16v11.53H4.17v-30.51c0-5.83,1.19-10.87,3.56-15.09,2.37-4.23,5.69-7.44,9.94-9.65,4.25-2.21,9.16-3.31,14.72-3.31s10.47,1.1,14.73,3.31Zm-5.81,29.16v-6.05c0-3.54-.83-6.23-2.5-8.06-1.66-1.83-3.86-2.74-6.59-2.74s-4.92.91-6.58,2.74c-1.66,1.83-2.5,4.51-2.5,8.06v6.05h18.16Z"/>
      <path class="cls-1" d="m94.32,12.27v57.26h-19.31V26.83h-9.82v-14.56h29.12Z"/>
      <path class="cls-1" d="m128.52,12.27v57.26h-19.31V26.83h-9.82v-14.56h29.12Z"/>
      <path d="m193.06,12.27v38.37c0,5.89-1.2,10.94-3.6,15.13-2.4,4.2-5.81,7.38-10.23,9.53-4.42,2.15-9.63,3.23-15.62,3.23-5.18,0-9.89-.61-14.11-1.84-4.23-1.23-7.89-2.93-11-5.11l7.04-13.66c2.67,1.69,5.49,2.99,8.47,3.89,2.97.9,5.88,1.35,8.71,1.35,3.93,0,6.75-.91,8.47-2.74,1.72-1.83,2.58-4.73,2.58-8.71v-1.64c-3.65,4.15-8.54,6.22-14.64,6.22-7.2,0-12.69-2.03-16.48-6.09-3.79-4.06-5.69-9.97-5.69-17.71V12.27h19.31v18.82c0,3.22.7,5.62,2.09,7.2,1.39,1.58,3.53,2.37,6.42,2.37,2.73,0,4.91-.8,6.54-2.41,1.64-1.61,2.45-4.21,2.45-7.81V12.27h19.31Z"/>
    </g>
  </g>
</svg>